<svg width="24" height="24" viewBox="0 0 24 24" fill="none" xmlns="http://www.w3.org/2000/svg">
<g clip-path="url(#clip0_3_19)">
<path d="M1.45199 13.439L18.563 13.439C18.6136 13.4395 18.6629 13.4552 18.7044 13.4842C18.7459 13.5132 18.7776 13.5541 18.7955 13.6015C18.8133 13.6489 18.8164 13.7005 18.8044 13.7497C18.7923 13.7988 18.7657 13.8432 18.728 13.877L10.091 21.477C9.81946 21.733 9.65793 22.0844 9.64043 22.4572C9.62293 22.83 9.75083 23.195 9.99718 23.4753C10.2435 23.7556 10.5891 23.9294 10.961 23.9599C11.333 23.9904 11.7022 23.8754 11.991 23.639L23.172 13.8C23.4274 13.5748 23.6319 13.2978 23.772 12.9874C23.9121 12.6771 23.9845 12.3405 23.9845 12C23.9845 11.6595 23.9121 11.3229 23.772 11.0125C23.6319 10.7022 23.4274 10.4252 23.172 10.2L11.993 0.362981C11.704 0.129554 11.336 0.016847 10.9658 0.048415C10.5957 0.079983 10.252 0.253382 10.0067 0.532376C9.76144 0.81137 9.63345 1.17437 9.64953 1.54552C9.6656 1.91666 9.82449 2.26724 10.093 2.52398L18.73 10.124C18.7677 10.1577 18.7943 10.2021 18.8064 10.2513C18.8184 10.3004 18.8153 10.3521 18.7975 10.3995C18.7796 10.4468 18.7479 10.4877 18.7064 10.5167C18.6649 10.5457 18.6156 10.5615 18.565 10.562L1.452 10.562C1.07678 10.5719 0.720263 10.7279 0.458377 10.9967C0.196491 11.2656 0.0499393 11.6261 0.0499392 12.0015C0.0499392 12.3768 0.196491 12.7373 0.458377 13.0062C0.720263 13.2751 1.07678 13.4311 1.45199 13.441L1.45199 13.439Z" fill="black"/>
</g>
<defs>
<clipPath id="clip0_3_19">
<rect width="24" height="24" fill="white" transform="translate(24 24) rotate(-180)"/>
</clipPath>
</defs>
</svg>
