<svg xmlns="http://www.w3.org/2000/svg" fill="none" viewBox="0 0 10 10" height="10" width="10"><path stroke="#000000" stroke-linecap="round" stroke-linejoin="round" d="M0.5 2.429C0.5 1.363 1.363 0.5 2.429 0.5H7.57c1.067 0 1.93 0.863 1.93 1.929V7.57A1.929 1.929 0 0 1 7.571 9.5H2.43A1.929 1.929 0 0 1 0.5 7.571V2.43Z" stroke-width="1"></path><path stroke="#000000" stroke-linecap="round" stroke-linejoin="round" d="M3 5a2 2 0 1 0 4 0 2 2 0 1 0 -4 0" stroke-width="1"></path><path stroke="#000000" stroke-linecap="round" stroke-linejoin="round" d="M7.602 2.526a0.125 0.125 0 0 1 0 -0.25" stroke-width="1"></path><path stroke="#000000" stroke-linecap="round" stroke-linejoin="round" d="M7.602 2.526a0.125 0.125 0 0 0 0 -0.25" stroke-width="1"></path></svg>