<svg width="138" height="72" viewBox="0 0 138 72" fill="none" xmlns="http://www.w3.org/2000/svg">
<g clip-path="url(#clip0_3_386)">
<path d="M12.8526 58.4975C13.1881 58.1104 13.472 57.8652 13.7043 57.762C13.9623 57.6329 14.2333 57.5684 14.5172 57.5684C14.956 57.5684 15.2786 57.7491 15.485 58.1104C15.7173 58.4717 15.8335 58.8846 15.8335 59.3492C15.7044 59.8395 15.485 60.2525 15.1753 60.588C14.8914 60.9235 14.543 61.1945 14.1301 61.401C13.7172 61.6074 13.2655 61.7623 12.7752 61.8655C12.2848 61.9429 11.7944 61.9816 11.3041 61.9816C10.7879 61.9558 10.2717 61.8784 9.75557 61.7494C9.26521 61.6203 8.80066 61.4526 8.36192 61.2461C7.92318 61.0138 7.53605 60.7557 7.20054 60.4719C6.89084 60.1622 6.67147 59.8137 6.54243 59.4266C5.94884 57.9555 5.54881 56.4457 5.34234 54.8972C5.13587 53.3229 5.03264 51.8002 5.03264 50.3292V49.3613L2.63246 49.7098C2.11629 49.6581 1.71626 49.4775 1.43237 49.1678C1.17428 48.8581 1.04524 48.4839 1.04524 48.0451C1.04524 47.7612 1.14847 47.4773 1.35494 47.1934C1.56141 46.8837 1.87111 46.6644 2.28404 46.5353L5.11006 46.1869C5.11006 45.2836 5.13587 44.3932 5.18749 43.5157C5.26491 42.6124 5.31653 41.7091 5.34234 40.8059C5.62623 39.9026 6.1424 39.3993 6.89084 39.2961C7.63929 39.2961 8.18126 39.7735 8.51677 40.7284C8.46515 41.7608 8.38773 43.0512 8.2845 44.5997L8.20707 45.6836C8.87809 45.5804 9.57492 45.503 10.2976 45.4514C11.0202 45.3998 11.7815 45.3739 12.5816 45.3739C13.5107 45.7095 13.9752 46.2256 13.9752 46.9224C13.9236 47.2838 13.7817 47.6193 13.5494 47.929C13.3171 48.2129 12.9687 48.4064 12.5042 48.5097C10.9815 48.5097 9.5233 48.6258 8.12964 48.8581V49.8646C8.12964 50.6905 8.15545 51.5163 8.20707 52.3422C8.25869 53.1423 8.32321 53.9165 8.40063 54.665C8.50387 55.3876 8.63291 56.0586 8.78776 56.678C8.94261 57.2716 9.12327 57.762 9.32974 58.1491C9.66524 58.3039 10.0524 58.4588 10.4911 58.6136C10.9299 58.7427 11.3557 58.8072 11.7686 58.8072C12.0009 58.8072 12.3106 58.7427 12.6977 58.6136L12.8526 58.4975ZM20.0144 60.8203C20.0144 60.1234 20.0273 59.4008 20.0531 58.6524C20.1047 57.9039 20.1951 57.1942 20.3241 56.5232L20.5951 53.6584L20.9435 51.568C21.0209 51.2324 21.0597 50.9227 21.0597 50.6389C21.0597 50.3292 20.9951 50.0065 20.8661 49.671C20.7629 49.3355 20.4661 49.1678 19.9757 49.1678C19.7692 49.1678 19.5628 49.1162 19.3563 49.0129C19.1756 48.8839 19.0079 48.7419 18.853 48.5871C18.6982 48.4064 18.5691 48.2258 18.4659 48.0451C18.3885 47.8645 18.3498 47.6967 18.3498 47.5418C18.3498 47.2321 18.5046 46.8966 18.8143 46.5353C19.124 46.174 19.5499 45.9933 20.0918 45.9933C21.4339 46.1224 22.4146 46.4966 23.034 47.116C23.6534 47.7354 23.9631 48.4968 23.9631 49.4001C24.7373 48.8581 25.6406 48.458 26.673 48.2C27.7053 47.9161 28.9312 47.7225 30.3507 47.6193C30.9185 47.6193 31.3572 47.7741 31.6669 48.0838C31.9766 48.3677 32.1315 48.729 32.1315 49.1678C32.1315 49.5549 32.0024 49.9033 31.7443 50.213C31.4862 50.4969 31.1378 50.6776 30.6991 50.755C29.5119 50.8324 28.5054 50.9615 27.6795 51.1421C26.8536 51.3228 26.1568 51.6196 25.589 52.0325C25.0212 52.4196 24.5825 52.9487 24.2728 53.6197C23.9631 54.2907 23.7308 55.1553 23.576 56.2135L23.4598 56.7942V58.3814C23.434 58.7685 23.4082 59.1685 23.3824 59.5815C23.3824 59.9686 23.3566 60.3686 23.305 60.7816L23.1888 61.4784L22.9566 62.0978C22.5436 62.5881 22.0662 62.8333 21.5242 62.8333C20.5951 62.8333 20.0918 62.2913 20.0144 61.2074V60.8203ZM45.0615 56.5232L44.7905 56.4845C44.4033 56.407 44.042 56.278 43.7065 56.0973C43.3968 55.9167 43.0871 55.736 42.7774 55.5554C42.4677 55.3747 42.1709 55.2198 41.887 55.0908C41.6031 54.936 41.3192 54.8585 41.0354 54.8585C40.1321 54.9618 39.3449 55.2715 38.6739 55.7876C38.0287 56.3038 37.7061 56.9232 37.7061 57.6458C37.7061 57.8523 37.7577 58.0717 37.8609 58.3039C37.9642 58.5362 38.1319 58.833 38.3642 59.1943C39.0352 59.6073 39.7707 59.8137 40.5708 59.8137C41.4999 59.8137 42.3129 59.7234 43.0097 59.5428L43.513 59.0395C43.771 58.704 44.1195 58.5362 44.5582 58.5362H44.7518C44.7776 58.3298 44.8034 58.1233 44.8292 57.9168C44.855 57.7104 44.8937 57.5039 44.9453 57.2974L45.0615 56.5232ZM45.6421 61.2074L44.7518 62.0591C44.4163 62.3688 43.8743 62.5881 43.1258 62.7172C42.4032 62.872 41.6418 62.9495 40.8418 62.9495C39.7578 62.9495 38.8287 62.8333 38.0545 62.601C37.306 62.3688 36.6479 61.9171 36.0801 61.2461C35.151 60.0073 34.6865 58.8459 34.6865 57.762C34.6865 57.0393 34.8284 56.3296 35.1123 55.6328C35.422 54.9101 35.8479 54.2649 36.3898 53.6971C36.9318 53.1294 37.5899 52.6648 38.3642 52.3035C39.1642 51.9422 40.0546 51.7615 41.0354 51.7615C41.4483 51.8131 41.8483 51.9035 42.2354 52.0325C42.6226 52.1615 42.9839 52.3035 43.3194 52.4583C43.6549 52.6132 43.9517 52.768 44.2098 52.9229C44.4937 53.0519 44.713 53.1552 44.8679 53.2326L44.6356 52.1874C44.5066 51.7744 44.3517 51.3744 44.1711 50.9873C43.9904 50.5743 43.771 50.1743 43.513 49.7872L42.7387 49.0904C42.5322 49.0387 42.3387 48.9742 42.158 48.8968C41.9774 48.7936 41.7451 48.7419 41.4612 48.7419C40.7127 48.7936 39.9772 48.8968 39.2546 49.0516C38.5319 49.1807 37.8093 49.3742 37.0867 49.6323C37.0092 49.6581 36.8931 49.671 36.7383 49.671C36.1963 49.671 35.7704 49.5162 35.4607 49.2065C35.1768 48.8968 35.0349 48.5613 35.0349 48.2C35.0349 47.8903 35.1123 47.6193 35.2672 47.387C35.422 47.1289 35.7188 46.8708 36.1576 46.6127C36.8286 46.4063 37.5641 46.1869 38.3642 45.9546C39.1901 45.6965 40.0159 45.5675 40.8418 45.5675C42.2612 45.5675 43.4355 45.8514 44.3646 46.4192C45.3195 46.987 46.068 47.7354 46.61 48.6645C47.1777 49.5678 47.5649 50.5743 47.7713 51.6841C48.0036 52.7939 48.1198 53.8907 48.1198 54.9747C48.1198 55.6199 48.0939 56.3167 48.0423 57.0651C48.0165 57.7878 47.9262 58.4717 47.7713 59.1169C47.6423 59.7363 47.4487 60.2525 47.1907 60.6654C46.9326 61.0784 46.5842 61.2848 46.1454 61.2848C46.0422 61.2848 45.9389 61.2848 45.8357 61.2848C45.7325 61.259 45.668 61.2332 45.6421 61.2074ZM58.998 61.8268L58.6109 61.9042H58.4947C58.0302 61.9042 57.656 61.6848 57.3721 61.2461C57.0882 60.8074 56.8559 60.317 56.6752 59.775C56.4946 59.2072 56.3655 58.6653 56.2881 58.1491C56.2107 57.6329 56.1462 57.2974 56.0946 57.1426C55.7849 56.136 55.4493 55.2069 55.088 54.3553C54.7525 53.4778 54.417 52.6132 54.0815 51.7615L53.6169 50.1356C53.4879 49.6968 53.3976 49.3613 53.346 49.1291C53.3201 48.871 53.3072 48.6774 53.3072 48.5484C53.3072 47.9806 53.4879 47.5935 53.8492 47.387C54.2363 47.1805 54.6235 47.0773 55.0106 47.0773C55.3461 47.0773 55.6042 47.1418 55.7849 47.2709C55.9655 47.3741 56.1075 47.5677 56.2107 47.8515C56.3397 48.1096 56.4559 48.4709 56.5591 48.9355C56.6881 49.3742 56.8559 49.942 57.0624 50.6389C57.4237 51.5938 57.785 52.5616 58.1463 53.5423C58.5076 54.4972 58.869 55.4908 59.2303 56.5232L59.54 55.9038C59.7206 55.6715 59.94 55.2327 60.1981 54.5875C60.7917 53.6326 61.3078 52.7035 61.7466 51.8002C62.1853 50.8711 62.495 50.0324 62.6757 49.2839C62.7789 48.8194 62.9854 48.4839 63.2951 48.2774C63.6306 48.0451 63.9403 47.929 64.2242 47.929C64.6371 47.929 65.0114 48.0709 65.3469 48.3548C65.6824 48.6387 65.8501 49.0774 65.8501 49.671C65.5404 50.8324 65.1275 51.8648 64.6113 52.768C64.0952 53.6455 63.6048 54.5359 63.1402 55.4392L61.5143 58.5362C61.153 59.2072 60.8175 59.8137 60.5078 60.3557C60.1981 60.8977 59.8884 61.3106 59.5787 61.5945L58.998 61.8268ZM71.4247 51.7228C71.3731 51.7486 71.3473 51.7744 71.3473 51.8002H71.4247C71.6054 51.8002 71.7861 51.8518 71.9667 51.9551C72.1474 52.0325 72.3022 52.1357 72.4313 52.2648C72.5603 52.368 72.6635 52.4713 72.741 52.5745C72.8442 52.6519 72.9087 52.6906 72.9345 52.6906C73.3217 52.8713 73.7475 52.9616 74.212 52.9616C74.9605 52.9616 75.5928 52.8584 76.109 52.6519C76.6251 52.4196 76.8832 51.8777 76.8832 51.026C76.7284 50.5098 76.5477 50.084 76.3412 49.7485C76.1606 49.413 75.8509 49.0904 75.4121 48.7806L74.5992 48.4322H74.0572C73.8507 48.4322 73.5797 48.4839 73.2442 48.5871C72.9087 48.6903 72.5732 48.8323 72.2377 49.0129C72.1345 49.1678 72.0312 49.4001 71.928 49.7098C71.8248 49.9936 71.7344 50.2775 71.657 50.5614C71.5796 50.8453 71.5151 51.1034 71.4634 51.3357C71.4376 51.568 71.4247 51.697 71.4247 51.7228ZM71.7344 55.4779L71.6183 55.0521C71.928 56.4199 72.6764 57.5426 73.8636 58.4201C74.1217 58.6266 74.4443 58.8072 74.8314 58.9621C75.2444 59.1169 75.6444 59.2589 76.0315 59.3879C76.4445 59.5169 76.8058 59.6202 77.1155 59.6976C77.4252 59.7492 77.6188 59.775 77.6962 59.775C77.9543 59.5428 78.2769 59.4266 78.664 59.4266C79.1285 59.4782 79.4899 59.6718 79.7479 60.0073C80.006 60.317 80.1351 60.6525 80.1351 61.0138C80.1351 61.5816 79.8641 62.0333 79.3221 62.3688C78.8059 62.7301 78.2511 62.9107 77.6575 62.9107C76.3929 62.9107 75.1928 62.6527 74.0572 62.1365C72.9216 61.6461 71.928 60.9751 71.0763 60.1234C70.2246 59.2718 69.5278 58.291 68.9858 57.1813C68.4697 56.0715 68.1858 54.8972 68.1342 53.6584C68.1342 52.8068 68.1987 51.8906 68.3277 50.9098C68.4568 49.9291 68.7278 49.0258 69.1407 48.2C69.5536 47.3483 70.1472 46.6386 70.9215 46.0708C71.7215 45.503 72.7797 45.2191 74.0959 45.2191C74.9218 45.2191 75.696 45.3998 76.4187 45.7611C77.1413 46.0966 77.7607 46.5611 78.2769 47.1547C78.8188 47.7483 79.2447 48.4322 79.5544 49.2065C79.8641 49.9549 80.0189 50.7421 80.0189 51.568C80.0189 52.3164 79.877 52.9745 79.5931 53.5423C79.335 54.1101 78.9737 54.5875 78.5091 54.9747C78.0446 55.336 77.4897 55.6199 76.8445 55.8263C76.2251 56.007 75.567 56.0973 74.8702 56.0973C74.5863 56.0973 74.2637 56.0715 73.9023 56.0199C73.5668 55.9683 73.2442 55.9167 72.9345 55.8651C72.6248 55.7876 72.3538 55.7231 72.1216 55.6715C71.9151 55.5941 71.7861 55.5295 71.7344 55.4779ZM85.8645 40.38C85.9936 39.9413 86.1871 39.5929 86.4452 39.3348C86.7291 39.0767 87.0517 38.9477 87.413 38.9477C88.1873 38.9477 88.7293 39.4122 89.039 40.3413C89.039 42.2769 89.0261 44.1093 89.0003 45.8385C88.9744 47.5418 88.9615 49.1549 88.9615 50.6776C88.9615 53.2584 89.1164 56.0586 89.4261 59.0782C89.6584 59.1556 89.9423 59.246 90.2778 59.3492C90.6391 59.4266 90.9746 59.5557 91.2843 59.7363C91.6198 59.8912 91.8908 60.0976 92.0973 60.3557C92.3295 60.6138 92.4457 60.9364 92.4457 61.3235C92.4457 61.7107 92.2908 62.0462 91.9811 62.3301C91.6972 62.6398 91.3488 62.7946 90.9359 62.7946C90.652 62.7946 90.3423 62.7172 90.0068 62.5623C89.1035 62.1236 88.4067 61.8268 87.9163 61.6719C87.4518 61.4913 87.0904 61.2977 86.8324 61.0913C86.6001 60.859 86.4452 60.5106 86.3678 60.046C86.2904 59.5557 86.2129 58.7814 86.1355 57.7233C85.9549 56.7683 85.8645 55.7231 85.8645 54.5875C85.8645 53.452 85.8645 52.3551 85.8645 51.297V40.38ZM101.35 69.2983C101.35 69.8145 101.182 70.2145 100.846 70.4984C100.511 70.7823 100.162 70.9243 99.8011 70.9243C99.4398 70.9243 99.0913 70.7952 98.7558 70.5371C98.4203 70.3049 98.2268 69.9306 98.1751 69.4145C98.0719 68.2273 97.9558 67.0401 97.8267 65.8529C97.6977 64.6915 97.5041 63.5172 97.246 62.3301L97.0912 61.6332C97.0912 61.5042 97.0654 61.3751 97.0138 61.2461C96.988 61.1171 96.975 60.988 96.975 60.859L95.9298 55.1295C95.904 54.923 95.8524 54.6133 95.775 54.2004C95.7233 53.7875 95.6588 53.3229 95.5814 52.8068C95.504 52.2906 95.4265 51.7486 95.3491 51.1808C95.2975 50.5872 95.2717 50.0195 95.2717 49.4775C95.2717 48.7806 95.4007 48.2774 95.6588 47.9677C95.9169 47.6322 96.2266 47.4128 96.5879 47.3096C96.975 47.1805 97.3622 47.1289 97.7493 47.1547C98.1622 47.1547 98.5106 47.1547 98.7945 47.1547C99.8527 47.1805 100.898 47.3741 101.93 47.7354C102.988 48.0709 103.93 48.5742 104.756 49.2452C105.582 49.9162 106.24 50.755 106.731 51.7615C107.247 52.768 107.505 53.9423 107.505 55.2844C107.505 57.22 106.898 58.8717 105.685 60.2396C104.498 61.5816 102.756 62.3817 100.459 62.6398C100.666 63.6721 100.833 64.7431 100.962 65.8529C101.117 66.9627 101.246 68.1111 101.35 69.2983ZM99.8785 59.4266L100.962 59.3492C101.943 59.2976 102.756 58.9104 103.401 58.1878C104.047 57.4394 104.369 56.4457 104.369 55.2069C104.369 54.4585 104.227 53.7875 103.943 53.1939C103.659 52.6003 103.272 52.097 102.782 51.6841C102.317 51.2454 101.75 50.9098 101.079 50.6776C100.408 50.4453 99.6849 50.3292 98.9107 50.3292H98.601C98.6784 50.5614 98.73 50.8453 98.7558 51.1808C98.7816 51.4905 98.8074 51.8389 98.8333 52.2261C98.8591 52.5874 98.8849 52.9745 98.9107 53.3874C98.9365 53.7746 98.9752 54.1617 99.0268 54.5488C99.1559 55.4263 99.2978 56.278 99.4527 57.1039C99.6075 57.9039 99.7495 58.6782 99.8785 59.4266ZM120.938 56.5232L120.667 56.4845C120.28 56.407 119.919 56.278 119.583 56.0973C119.274 55.9167 118.964 55.736 118.654 55.5554C118.344 55.3747 118.048 55.2198 117.764 55.0908C117.48 54.936 117.196 54.8585 116.912 54.8585C116.009 54.9618 115.222 55.2715 114.551 55.7876C113.905 56.3038 113.583 56.9232 113.583 57.6458C113.583 57.8523 113.634 58.0717 113.738 58.3039C113.841 58.5362 114.009 58.833 114.241 59.1943C114.912 59.6073 115.647 59.8137 116.447 59.8137C117.377 59.8137 118.19 59.7234 118.886 59.5428L119.39 59.0395C119.648 58.704 119.996 58.5362 120.435 58.5362H120.628C120.654 58.3298 120.68 58.1233 120.706 57.9168C120.732 57.7104 120.77 57.5039 120.822 57.2974L120.938 56.5232ZM121.519 61.2074L120.628 62.0591C120.293 62.3688 119.751 62.5881 119.003 62.7172C118.28 62.872 117.519 62.9495 116.718 62.9495C115.635 62.9495 114.705 62.8333 113.931 62.601C113.183 62.3688 112.525 61.9171 111.957 61.2461C111.028 60.0073 110.563 58.8459 110.563 57.762C110.563 57.0393 110.705 56.3296 110.989 55.6328C111.299 54.9101 111.725 54.2649 112.267 53.6971C112.809 53.1294 113.467 52.6648 114.241 52.3035C115.041 51.9422 115.931 51.7615 116.912 51.7615C117.325 51.8131 117.725 51.9035 118.112 52.0325C118.499 52.1615 118.861 52.3035 119.196 52.4583C119.532 52.6132 119.828 52.768 120.086 52.9229C120.37 53.0519 120.59 53.1552 120.745 53.2326L120.512 52.1874C120.383 51.7744 120.228 51.3744 120.048 50.9873C119.867 50.5743 119.648 50.1743 119.39 49.7872L118.615 49.0904C118.409 49.0387 118.215 48.9742 118.035 48.8968C117.854 48.7936 117.622 48.7419 117.338 48.7419C116.589 48.7936 115.854 48.8968 115.131 49.0516C114.409 49.1807 113.686 49.3742 112.963 49.6323C112.886 49.6581 112.77 49.671 112.615 49.671C112.073 49.671 111.647 49.5162 111.337 49.2065C111.054 48.8968 110.912 48.5613 110.912 48.2C110.912 47.8903 110.989 47.6193 111.144 47.387C111.299 47.1289 111.596 46.8708 112.034 46.6127C112.705 46.4063 113.441 46.1869 114.241 45.9546C115.067 45.6965 115.893 45.5675 116.718 45.5675C118.138 45.5675 119.312 45.8514 120.241 46.4192C121.196 46.987 121.945 47.7354 122.487 48.6645C123.054 49.5678 123.442 50.5743 123.648 51.6841C123.88 52.7939 123.996 53.8907 123.996 54.9747C123.996 55.6199 123.971 56.3167 123.919 57.0651C123.893 57.7878 123.803 58.4717 123.648 59.1169C123.519 59.7363 123.325 60.2525 123.067 60.6654C122.809 61.0784 122.461 61.2848 122.022 61.2848C121.919 61.2848 121.816 61.2848 121.712 61.2848C121.609 61.259 121.545 61.2332 121.519 61.2074ZM129.842 40.38C129.971 39.9413 130.165 39.5929 130.423 39.3348C130.707 39.0767 131.029 38.9477 131.391 38.9477C132.165 38.9477 132.707 39.4122 133.016 40.3413C133.016 42.2769 133.004 44.1093 132.978 45.8385C132.952 47.5418 132.939 49.1549 132.939 50.6776C132.939 53.2584 133.094 56.0586 133.404 59.0782C133.636 59.1556 133.92 59.246 134.255 59.3492C134.617 59.4266 134.952 59.5557 135.262 59.7363C135.597 59.8912 135.868 60.0976 136.075 60.3557C136.307 60.6138 136.423 60.9364 136.423 61.3235C136.423 61.7107 136.268 62.0462 135.959 62.3301C135.675 62.6398 135.326 62.7946 134.913 62.7946C134.63 62.7946 134.32 62.7172 133.984 62.5623C133.081 62.1236 132.384 61.8268 131.894 61.6719C131.429 61.4913 131.068 61.2977 130.81 61.0913C130.578 60.859 130.423 60.5106 130.345 60.046C130.268 59.5557 130.19 58.7814 130.113 57.7233C129.932 56.7683 129.842 55.7231 129.842 54.5875C129.842 53.452 129.842 52.3551 129.842 51.297V40.38Z" fill="black"/>
<path fill-rule="evenodd" clip-rule="evenodd" d="M26.7999 27.8794C26.7985 27.8678 26.7975 27.8566 26.8025 27.8501C26.837 28.3184 27.0514 28.7445 27.4037 29.0507C27.5597 29.1712 27.7503 29.2618 27.9626 29.324C28.7626 29.5344 29.7214 29.0408 29.9003 28.1938C30.0505 27.4718 29.8229 26.843 29.567 26.1923C29.5137 26.0266 29.4715 25.8467 29.4238 25.674C29.4165 25.6171 29.4106 25.5584 29.4047 25.4996C29.3988 25.4416 29.393 25.3837 29.3858 25.3275C29.3577 24.9094 29.3674 24.4866 29.3841 24.0692C29.4452 23.3631 29.5421 22.6641 29.6635 21.9734C29.6702 21.9465 29.6752 21.9209 29.6794 21.8918C29.6823 21.8765 29.6848 21.8613 29.6866 21.8455C29.6889 21.8426 29.6905 21.8397 29.6919 21.8369L29.6921 21.8384L29.6928 21.835C29.6956 21.8283 29.6965 21.8215 29.6975 21.8135C29.6981 21.8091 29.6988 21.8044 29.6998 21.7991C29.8945 20.7972 30.1534 19.8122 30.4699 18.8382C30.7293 18.1213 31.0084 17.4084 31.341 16.7141C31.6527 16.1056 31.9965 15.4992 32.3758 14.9203C32.7474 14.3807 33.1419 13.8702 33.5702 13.3744C33.9234 12.9905 34.298 12.6231 34.6883 12.2791C35.0818 11.9603 35.477 11.6541 35.9005 11.3698C36.2801 11.1422 36.6488 10.9288 37.0388 10.7319C37.1917 10.6692 37.3445 10.6064 37.4976 10.5466C37.5938 10.509 37.6903 10.4725 37.787 10.4379C38.0641 10.3576 38.3358 10.2844 38.6092 10.2238L39.288 10.1368C39.5732 10.1194 39.8617 10.1271 40.1502 10.1348C40.3758 10.1505 40.5904 10.1805 40.8121 10.2159C41.1015 10.281 41.373 10.3548 41.646 10.4412C41.9009 10.5362 42.1575 10.6439 42.4086 10.7586C42.6897 10.9078 42.967 11.0768 43.2442 11.2456C43.3843 11.3426 43.5245 11.4396 43.6593 11.5437C43.4253 11.8612 43.1913 12.1787 42.9661 12.5143C41.6002 14.5165 40.2866 16.6272 39.4152 18.8983C38.9888 20.0071 38.624 21.1974 38.5406 22.39C38.4716 23.4465 38.516 24.4886 38.6946 25.5326C38.898 26.7203 39.2107 27.9131 39.6553 29.038C40.0515 30.0349 40.5708 30.9457 41.3216 31.7183C42.0265 32.4328 42.9757 32.8604 43.9601 32.9642C44.8138 33.0463 45.8166 32.7452 46.479 32.1811C48.2151 30.7254 49.2655 28.6039 49.8984 26.4656C50.2264 25.3375 50.4742 24.1813 50.6504 23.0151C50.8198 21.9456 50.9342 20.845 50.9426 19.7643C50.9467 18.601 50.8437 17.4004 50.5211 16.2791C50.2254 15.2692 49.8253 14.292 49.306 13.3812C48.9076 12.6656 48.448 11.9708 47.9303 11.3217C48.5819 10.6248 49.2581 9.96948 49.9698 9.3416C50.7372 8.70014 51.522 8.09479 52.3455 7.54195C53.0365 7.10191 53.7449 6.698 54.4778 6.33568C55.0209 6.08711 55.5672 5.86375 56.1239 5.67096C56.4497 5.57165 56.7646 5.48659 57.0937 5.41243C57.4189 5.35795 57.7387 5.31054 58.0671 5.2812C58.3469 5.27086 58.6283 5.27311 58.9042 5.28243C59.1172 5.29981 59.3318 5.32974 59.5411 5.36684C59.8501 5.43577 60.1537 5.51179 60.4606 5.61302C60.7352 5.71192 61.0114 5.82339 61.2767 5.94911C61.9191 6.27553 62.5538 6.64135 63.1611 7.04263L63.1966 7.07005C63.2132 7.07734 63.2285 7.08633 63.244 7.09687C63.26 7.10771 63.2761 7.12022 63.2942 7.13413C63.2867 7.13088 63.2795 7.12721 63.2725 7.12335C63.2496 7.10739 63.2265 7.09138 63.2036 7.07547C63.2257 7.09253 63.2477 7.10959 63.2725 7.12335C64.1031 7.70193 64.9012 8.30937 65.6682 8.95704C63.8994 10.5575 62.3569 12.3779 61.0075 14.359C59.6744 16.3187 58.5553 18.5003 58.022 20.8175C57.5422 22.9042 57.4485 25.0627 57.9347 27.1597C58.4154 29.2637 59.4536 31.2323 61.2677 32.4754C62.1909 33.098 63.2495 33.5309 64.3489 33.7349C65.2981 33.9133 66.2941 33.9581 67.2333 33.7099C68.284 33.4346 69.2813 32.8914 70.0293 32.0991C70.7899 31.3052 71.4353 30.4109 71.9833 29.4527C73.0954 27.5148 73.9939 25.3553 74.3145 23.1229C74.6444 20.8638 74.4539 18.5309 73.8887 16.3163C73.3284 14.1394 72.4421 12.0617 71.115 10.2324C70.8813 9.90459 70.6367 9.59103 70.3795 9.27907C70.6602 9.07695 70.9535 8.87322 71.2484 8.68207C71.1833 8.72235 71.1308 8.76102 71.0711 8.79421C71.8256 8.30131 72.5991 7.85712 73.4098 7.45292C74.1027 7.12767 74.8077 6.84563 75.5299 6.59964C76.0521 6.43682 76.5845 6.30464 77.1131 6.19212L77.1076 6.19922C77.5318 6.11923 77.9521 6.05897 78.3882 6.02219C78.7882 6.00281 79.1844 6.00316 79.5821 6.01602C79.9634 6.05016 80.3392 6.09138 80.7182 6.15776C81.2829 6.27696 81.8454 6.4284 82.3985 6.60659C82.9815 6.81924 83.5552 7.05871 84.1197 7.32493C84.755 7.64594 85.3754 8.00072 85.9756 8.39652C86.6358 8.86127 87.2669 9.34889 87.8778 9.87747C88.2758 10.2417 88.6629 10.62 89.0446 11.0055C88.5227 11.2704 88.0168 11.559 87.5195 11.8656C87.1647 12.0916 86.8168 12.3317 86.4735 12.5687L86.3376 12.6624C85.6137 13.1449 84.9214 13.6745 84.2961 14.2786C83.5329 15.0025 82.8831 15.8141 82.3044 16.6806C81.6395 17.673 81.0454 18.7203 80.5727 19.8159C80.3665 20.282 80.1938 20.7577 80.0219 21.2316C79.9915 21.3153 79.9611 21.3991 79.9305 21.4827C79.2792 23.2783 78.8751 25.2083 79.1776 27.118C79.3333 28.133 79.7027 29.1205 80.1592 30.0394C80.6053 30.9277 81.1417 31.7724 81.8051 32.5115C83.146 34.0005 85.0091 35.0776 87.0658 35.0246C89.2569 34.9735 91.3635 34.0645 92.8705 32.4657C94.394 30.8456 95.4801 28.8536 96.1697 26.7592C96.8686 24.638 97.1155 22.4279 96.9825 20.1961C96.8441 17.9715 96.286 15.7624 95.2101 13.7986C94.9271 13.2856 94.6259 12.7811 94.2958 12.2996C94.4363 12.2496 94.5895 12.1981 94.7371 12.1536C94.6704 12.1813 94.6091 12.2019 94.5479 12.2225C95.2083 12.042 95.8688 11.8615 96.5411 11.7241C97.1719 11.6113 97.8074 11.5361 98.4517 11.479C100.063 11.3874 101.664 11.3225 103.268 11.3724C104.573 11.486 105.864 11.6909 107.155 11.9407L107.148 11.9352C107.233 11.9561 107.317 11.9644 107.403 11.9854C107.381 12.2629 107.347 12.5421 107.312 12.8212C107.22 13.5208 107.093 14.2034 106.964 14.8943L106.931 15.0743C106.933 15.0436 106.938 15.0126 106.943 14.9809C106.95 14.9458 106.957 14.9097 106.962 14.8722L106.941 14.9757C106.625 16.5628 106.299 18.1997 106.326 19.8281C106.345 20.669 106.404 21.5303 106.638 22.3563C106.737 22.727 106.908 23.1202 107.197 23.3771C107.717 23.847 108.378 24.0178 109.04 23.7477C109.68 23.4882 110.134 22.8811 110.539 22.3381C110.572 22.2941 110.605 22.2505 110.637 22.2075C110.866 21.8971 111.093 21.5741 111.32 21.2512C111.421 21.1084 111.522 20.9656 111.624 20.8226C112.017 20.2688 112.413 19.7122 112.787 19.1463L112.791 19.1414C113.24 18.472 113.689 17.8025 114.103 17.1057C114.2 16.9451 114.295 16.7838 114.39 16.6224C114.681 16.1301 114.972 15.6368 115.291 15.1582C115.344 15.0792 115.401 15.003 115.458 14.9276C115.482 14.8962 115.506 14.8649 115.53 14.8336C115.643 14.7169 115.756 14.6002 115.876 14.489C116.131 14.2327 116.28 13.9069 116.327 13.5688C116.575 13.6136 116.829 13.6512 117.071 13.6458C117.713 13.6209 118.274 13.2614 118.535 12.6594C118.993 11.5976 118.191 10.5698 117.502 9.83403C117.096 9.40698 116.679 8.9941 116.256 8.58832C115.547 7.89346 114.832 7.19313 114.117 6.50536C113.346 5.77372 112.604 5.0192 111.89 4.22929C111.579 3.89861 111.261 3.56245 110.939 3.24595L110.886 3.19314C110.501 2.80854 110.117 2.42424 109.628 2.18755C108.92 1.84402 108.022 2.21472 107.645 2.86355C107.437 3.23517 107.338 3.65687 107.4 4.08972C107.429 4.31595 107.465 4.54766 107.494 4.77395C107.539 5.08441 107.563 5.40216 107.586 5.71685L107.6 5.89753C107.602 6.86186 107.59 7.81534 107.56 8.77746C107.553 8.77197 107.533 8.7681 107.521 8.76971C106.657 8.61215 105.801 8.46008 104.942 8.34025C104.071 8.22203 103.21 8.17913 102.337 8.15054C101.672 8.12969 100.998 8.15806 100.329 8.18612C100.153 8.19355 99.9769 8.20096 99.8018 8.20745C98.498 8.25331 97.2006 8.3494 95.9156 8.59091C94.9235 8.77566 93.9427 9.04836 92.988 9.37525C92.7124 9.46807 92.4314 9.56804 92.1559 9.66093C91.7623 9.23227 91.3648 8.82327 90.9493 8.42297C89.2203 6.74733 87.3018 5.28771 85.1097 4.28481C83.0671 3.35212 80.8124 2.70857 78.5469 2.82672C76.2868 2.93771 74.1016 3.58223 72.0675 4.55865C70.6958 5.22013 69.381 6.02755 68.1421 6.92755C67.4484 6.30098 66.7273 5.70988 65.9609 5.16299C64.171 3.85936 62.2383 2.63787 60.0214 2.23868C57.8634 1.85104 55.6824 2.32887 53.6983 3.19671C51.5517 4.14285 49.5989 5.45386 47.8276 6.98431C47.0618 7.63836 46.3472 8.34322 45.6681 9.07558C45.4057 8.87286 45.1379 8.67724 44.8536 8.50288C43.0169 7.33297 40.8197 6.68846 38.6412 6.98708C34.0633 7.60622 30.5248 11.248 28.5232 15.2165C27.5158 17.2239 26.8603 19.4353 26.4863 21.6491C26.2981 22.772 26.1344 23.9366 26.1916 25.0792L26.1954 25.1532C26.219 25.6242 26.2429 26.1001 26.3676 26.5515C26.4499 26.8645 26.5577 27.1605 26.665 27.4555C26.704 27.5623 26.7428 27.669 26.7803 27.7763C26.7819 27.7889 26.789 27.7944 26.789 27.7944L26.7999 27.8794ZM29.6706 21.9332C29.6682 21.9466 29.6659 21.96 29.6635 21.9734C29.6611 21.983 29.6585 21.9927 29.6556 22.0028C29.6606 21.9778 29.6657 21.955 29.6706 21.9332ZM29.6706 21.9332C29.6746 21.9105 29.6787 21.8878 29.6827 21.8652C29.6816 21.8743 29.6805 21.8832 29.6794 21.8918C29.6768 21.9055 29.6737 21.9191 29.6706 21.9332ZM43.0028 18.5786C43.6776 17.2654 44.4289 16 45.2424 14.7713C45.4528 14.4695 45.6578 14.175 45.8448 13.8891C45.9079 13.9832 45.9782 14.0828 46.0485 14.1824C46.3289 14.6255 46.5787 15.079 46.8105 15.5412C46.9861 15.9147 47.1422 16.2845 47.2873 16.6683C47.4024 17.0177 47.4923 17.3703 47.5713 17.7371C47.6442 18.1558 47.699 18.5832 47.7287 19.0138C47.7479 19.4759 47.7365 19.9419 47.713 20.4093C47.6283 21.5286 47.4913 22.63 47.2793 23.7286C47.2863 23.7017 47.292 23.6739 47.2976 23.646C47.3057 23.6052 47.3134 23.5642 47.3235 23.5249C47.1462 24.3845 46.9297 25.2364 46.6668 26.0752C46.4969 26.5441 46.3129 27.0021 46.0967 27.4579C45.9084 27.8334 45.7005 28.205 45.4659 28.5673C45.3048 28.8052 45.1366 29.0376 44.9471 29.2536C44.898 29.3044 44.85 29.3538 44.8015 29.4026C44.7385 29.4659 44.6748 29.5283 44.6071 29.5911C44.6336 29.5702 44.6585 29.5482 44.6829 29.5268C44.7119 29.5012 44.74 29.4765 44.7686 29.4554C44.6832 29.5366 44.5906 29.6123 44.491 29.6826C44.4423 29.7016 44.4063 29.7191 44.3647 29.7436C44.3467 29.7523 44.3215 29.7555 44.298 29.7713C44.2854 29.7729 44.2728 29.7745 44.2548 29.7832C44.2351 29.7793 44.2226 29.781 44.21 29.7826C44.1832 29.7732 44.1581 29.7764 44.1258 29.7742C44.092 29.7593 44.0455 29.7461 44.0063 29.7384C43.9669 29.7307 43.9259 29.7103 43.885 29.6901L43.8641 29.6789C43.8249 29.658 43.7908 29.6399 43.7607 29.6166L43.5763 29.4742C43.5234 29.4106 43.4722 29.3597 43.4209 29.3088C43.2994 29.1583 43.1904 29.0062 43.0799 28.8415C43.0064 28.7168 42.9329 28.592 42.8648 28.4602C42.6701 28.0379 42.506 27.6054 42.353 27.1587C42.1298 26.4654 41.9625 25.7586 41.8203 25.0485C41.7632 24.6533 41.7133 24.2637 41.6814 23.8653C41.6717 23.5408 41.6619 23.2162 41.6774 22.8884C41.7015 22.5786 41.7382 22.2672 41.7947 21.9598C41.8891 21.5005 42.0047 21.0576 42.1456 20.6115C42.3957 19.9214 42.685 19.239 43.0028 18.5786ZM63.582 16.2009C64.2484 15.221 64.9716 14.2849 65.7445 13.3873C66.4203 12.6298 67.1333 11.9122 67.8817 11.2221C68.2075 11.6211 68.5153 12.0288 68.8067 12.4578C69.1677 13.0312 69.4966 13.6023 69.798 14.2089C70.0433 14.7268 70.2454 15.2567 70.4366 15.8008C70.6565 16.469 70.8386 17.1419 70.9776 17.8268C71.1239 18.6194 71.2397 19.4223 71.2926 20.2332C71.3178 20.7283 71.3107 21.2211 71.284 21.7101C71.247 22.1684 71.1848 22.63 71.103 23.0877C70.9838 23.6524 70.8307 24.2023 70.6579 24.7483C70.4133 25.4313 70.1333 26.0868 69.8281 26.7457C69.4884 27.4345 69.1007 28.0975 68.6846 28.7386C68.4578 29.0616 68.2097 29.3682 67.9544 29.6693C67.8542 29.7843 67.7523 29.8868 67.6434 29.9838C67.4873 30.1124 67.3242 30.2355 67.1541 30.3532C67.0868 30.3957 67.0188 30.431 66.9481 30.4676C66.9256 30.4794 66.9027 30.4912 66.8795 30.5035C66.8128 30.5312 66.746 30.5589 66.6849 30.5796C66.5066 30.6344 66.3268 30.6766 66.1453 30.7063C66.1797 30.6986 66.2127 30.6928 66.2457 30.6869C66.2782 30.6811 66.3108 30.6753 66.3447 30.6679C66.2136 30.6911 66.0753 30.7088 65.9425 30.7195C65.8278 30.7214 65.7076 30.7305 65.5913 30.7199L65.4778 30.7074C65.2776 30.6857 65.0813 30.6645 64.8828 30.6254C64.6578 30.5648 64.4273 30.5114 64.2007 30.4382L64.1304 30.4107C63.9467 30.3388 63.7685 30.2692 63.5932 30.184C63.4153 30.0918 63.2428 29.9925 63.0758 29.8862L62.6645 29.5683C62.5953 29.5041 62.529 29.4395 62.464 29.3733C62.3928 29.3008 62.3231 29.2263 62.2529 29.1484L62.2519 29.1471C62.122 28.979 61.9921 28.8108 61.8748 28.6411C61.7626 28.4639 61.67 28.2904 61.5759 28.1045C61.4492 27.814 61.3296 27.5291 61.221 27.23C61.1146 26.8986 61.0405 26.5696 60.9648 26.228C60.8799 25.7661 60.8203 25.301 60.7858 24.8327C60.7615 24.395 60.7696 23.9596 60.7847 23.5296C60.8256 23.0516 60.89 22.5578 60.9757 22.0804C61.1004 21.5086 61.2519 20.9461 61.4301 20.3931C61.645 19.7777 61.9009 19.1827 62.171 18.5987C62.5951 17.7713 63.0617 16.9767 63.582 16.2009ZM89.1676 14.5545C89.6884 14.2321 90.2125 13.9349 90.765 13.6597C90.9094 13.59 91.0609 13.5259 91.2211 13.4798C91.4744 13.8114 91.7168 14.1572 91.9537 14.5102C92.2113 14.9244 92.4453 15.3543 92.6684 15.7985C92.8647 16.2332 93.0468 16.657 93.2 17.1038C93.3437 17.5772 93.4694 18.0594 93.5771 18.5503C93.6835 19.1308 93.7577 19.709 93.8084 20.303C93.8403 20.9506 93.8471 21.6013 93.8233 22.2624C93.7805 22.8748 93.6983 23.4794 93.5911 24.0874C93.457 24.6859 93.3033 25.2806 93.1158 25.8605C92.9179 26.4097 92.6988 26.9425 92.4529 27.466C92.1999 27.984 91.913 28.487 91.5978 28.9683C91.3451 29.3393 91.0822 29.6797 90.794 30.0233C90.6138 30.2125 90.432 30.3891 90.2377 30.5674C90.0127 30.756 89.7791 30.9265 89.5383 31.0915C89.3539 31.1982 89.1626 31.2995 88.9766 31.3936C88.789 31.4752 88.5998 31.5441 88.4106 31.6131C88.2323 31.6679 88.0525 31.7101 87.8726 31.7524C87.6605 31.7923 87.4594 31.8181 87.2441 31.833C87.1168 31.8366 87.0021 31.8385 86.8803 31.835C86.712 31.8182 86.5366 31.796 86.3668 31.7667C86.2754 31.7487 86.1831 31.7232 86.0938 31.6985C86.0678 31.6914 86.0421 31.6842 86.0168 31.6774C85.8562 31.6213 85.7011 31.5581 85.5516 31.4879C85.4004 31.4051 85.2493 31.3223 85.1036 31.2324C85.0003 31.1601 84.9052 31.0841 84.8111 31.0089C84.7645 30.9716 84.7181 30.9345 84.6711 30.8982C84.4747 30.7125 84.291 30.5252 84.1057 30.3254C83.9013 30.077 83.7079 29.8142 83.5271 29.55C83.3343 29.2425 83.147 28.9279 82.9832 28.5975C82.8162 28.242 82.6744 27.8833 82.5381 27.5175C82.4436 27.2293 82.3743 26.938 82.3121 26.6521C82.2895 26.4761 82.2669 26.3002 82.2498 26.1171C82.2448 25.9969 82.2434 25.8764 82.2437 25.7556C82.244 25.6527 82.2454 25.5497 82.2469 25.4467C82.2672 25.1566 82.3071 24.8703 82.3526 24.5771C82.4685 23.9872 82.6239 23.4051 82.806 22.8323C83.0934 22.0352 83.384 21.2632 83.7392 20.4958C84.1117 19.7644 84.5252 19.0533 84.9797 18.3626C85.2652 17.9491 85.5649 17.5465 85.8805 17.1674C86.1773 16.8418 86.4899 16.5398 86.8223 16.2417C87.5678 15.6286 88.3676 15.0915 89.1676 14.5545ZM110.115 17.3873C109.948 17.6323 109.78 17.8647 109.613 18.1096C109.67 17.6552 109.732 17.1937 109.807 16.7305C109.798 16.7659 109.791 16.8029 109.783 16.8398C109.777 16.8717 109.771 16.9035 109.763 16.9342C109.817 16.6648 109.873 16.3952 109.93 16.1251C110.094 15.3431 110.258 14.5573 110.366 13.7648C110.422 13.3552 110.471 12.9399 110.514 12.5319L111.045 12.6363C111.006 12.6336 110.967 12.6263 110.926 12.6188C110.899 12.6138 110.871 12.6087 110.843 12.6048C111.246 12.68 111.638 12.7569 112.029 12.8339C112.029 12.8373 112.03 12.8397 112.03 12.8397C112.03 12.8397 112.032 12.8387 112.035 12.8351L112.038 12.8357C112.045 12.8396 112.055 12.8394 112.072 12.8424L112.075 12.8429L112.899 12.9927C112.573 13.4433 112.274 13.9032 111.997 14.3797C111.387 15.4033 110.774 16.4019 110.115 17.3873ZM111.393 9.4905L110.721 9.36223C110.751 8.79625 110.773 8.22478 110.778 7.66202C110.991 7.88374 111.217 8.10386 111.437 8.31855C111.738 8.6045 112.036 8.89107 112.333 9.17891C112.544 9.38385 112.755 9.58943 112.968 9.79594C112.911 9.78765 112.855 9.77849 112.8 9.76878C112.696 9.75056 112.593 9.73037 112.49 9.71025C112.555 9.71472 112.621 9.73177 112.693 9.74179C112.264 9.65746 111.829 9.57382 111.393 9.4905Z" fill="black"/>
</g>
<defs>
<clipPath id="clip0_3_386">
<rect width="138" height="72" fill="white"/>
</clipPath>
</defs>
</svg>
